{"title":"Yoshishige Yoshida - Erosu Purasu Gyakusatsu (1969)","uid":5744268,"size":1888130682,"categoryP":"video","categoryS":"movies","magnet":"?xt=urn:btih:09ebc832d303841b3d417b787fbc1fafaf72b3d8&amp;dn=Yoshishige+Yoshida+-+Erosu+Purasu+Gyakusatsu+%281969%29&amp;tr=udp%3A%2F%2Ftracker.openbittorrent.com%3A80&amp;tr=udp%3A%2F%2Fopen.demonii.com%3A1337&amp;tr=udp%3A%2F%2Ftracker.coppersurfer.tk%3A6969&amp;tr=udp%3A%2F%2Fexodus.desync.com%3A6969","seeders":2,"leechers":2,"uploader":"mfccorrea","files":4,"time":1281142955,"description":"A self-proclaimed anarchist is one of many young people caught up in the moral conflict of personal freedom versus their responsibility to society and its needs. As Japan emerges from centuries under a feudal system, youthful rebellion and free thinking are the main concerns of many students. Past and present tense are combined and the main character is stabbed by his mistress. He begins to feel lost in the changing political and social climate of the times. \n\n   General\n      Complete name : Eros Plus Massacre.avi\n      Format : AVI\n      Format/Info : Audio Video Interleave\n      File size : 1.76 GiB\n      Duration : 3h 36mn\n      Overall bit rate : 1 163 Kbps\n      Writing library : VirtualDub build 0/release\n   Video #0\n      ID : 0\n      Format : MPEG-4 Visual\n      Format profile : Simple@L3\n      Format settings, BVOP : No\n      Format settings, QPel : No\n      Format settings, GMC : No warppoints\n      Format settings, Matrix : Default (MPEG)\n      Codec ID : XVID\n      Codec ID/Hint : XviD\n      Duration : 3h 36mn\n      Bit rate : 961 Kbps\n      Width : 640 pixels\n      Height : 272 pixels\n      Display aspect ratio : 2.35:1\n      Frame rate : 23.976 fps\n      Resolution : 24 bits\n      Colorimetry : 4:2:0\n      Scan type : Progressive\n      Bits/(Pixel*Frame) : 0.230\n      Stream size : 1.45 GiB (83%)\n      Writing library : XviD 1.1.0 Beta2 (UTC 2005-04-04)\n   Audio #1\n      ID : 1\n      Format : MPEG Audio\n      Format version : Version 1\n      Format profile : Layer 3\n      Codec ID : 55\n      Codec ID/Hint : MP3\n      Duration : 3h 36mn\n      Bit rate mode : Constant\n      Bit rate : 192 Kbps\n      Channel(s) : 2 channels\n      Sampling rate : 48.0 KHz\n      Resolution : 16 bits\n      Stream size : 297 MiB (17%)\n      Alignment : Split accross interleaves\n      Interleave, duration : 42 ms (1.00 video frame)\n      Interleave, preload duration : 500 ms\n &lt;a href=&quot;\nhttp://www.imdb.com/title/tt0064296/&quot; rel=&quot;nofollow&quot; target=&quot;_NEW&quot;&gt;\nhttp://www.imdb.com/title/tt0064296/&lt;/a&gt;\n\nJapanese audio; English, French and Portuguese subtitles\n\nYoshishige Yoshida - Erosu Purasu Gyakusatsu (1969)","torrent":{"xt":"urn:btih:09ebc832d303841b3d417b787fbc1fafaf72b3d8","amp;dn":"Yoshishige+Yoshida+-+Erosu+Purasu+Gyakusatsu+%281969%29","amp;tr":["udp%3A%2F%2Ftracker.openbittorrent.com%3A80","udp%3A%2F%2Fopen.demonii.com%3A1337","udp%3A%2F%2Ftracker.coppersurfer.tk%3A6969","udp%3A%2F%2Fexodus.desync.com%3A6969"],"infoHash":"09ebc832d303841b3d417b787fbc1fafaf72b3d8","infoHashBuffer":{"type":"Buffer","data":[9,235,200,50,211,3,132,27,61,65,123,120,127,188,31,175,175,114,179,216]},"announce":[],"urlList":[]}}